<svg xmlns="http://www.w3.org/2000/svg" viewBox="0 0 32 32" fill="none">
  <defs>
    <linearGradient id="radishBody" x1="0%" y1="0%" x2="0%" y2="100%">
      <stop offset="0%" style="stop-color:#f87171"/>
      <stop offset="50%" style="stop-color:#dc2626"/>
      <stop offset="100%" style="stop-color:#fecaca"/>
    </linearGradient>
    <linearGradient id="leaf" x1="0%" y1="100%" x2="0%" y2="0%">
      <stop offset="0%" style="stop-color:#16a34a"/>
      <stop offset="100%" style="stop-color:#22c55e"/>
    </linearGradient>
  </defs>
  <!-- Leaves -->
  <ellipse cx="12" cy="6" rx="3" ry="5" fill="url(#leaf)" transform="rotate(-20 12 6)"/>
  <ellipse cx="16" cy="5" rx="2.5" ry="5.5" fill="url(#leaf)"/>
  <ellipse cx="20" cy="6" rx="3" ry="5" fill="url(#leaf)" transform="rotate(20 20 6)"/>
  <!-- Radish body -->
  <path d="M16 9c-6 0-9 4-9 9c0 4 2 8 5 11c1.5 1.2 2.5 2 4 2s2.5-.8 4-2c3-3 5-7 5-11c0-5-3-9-9-9z" fill="url(#radishBody)"/>
  <!-- Root tip -->
  <path d="M16 29c0.5 0 1 0 1.5-0.5c0.3-0.3 0.5-1 0.5-1.5l-2 3z" fill="#fecaca"/>
  <!-- Highlight -->
  <ellipse cx="13" cy="16" rx="2" ry="3" fill="white" opacity="0.3"/>
</svg>
